#!OML:ASF E:/inclinewalkrobotboard/Project1/Captureday1/Session1/subject1.ASF
:FULLY-SPECIFIED
:DEGREES
38
root 0 0 0 -3.633710427034346 -4.136873412112333 -6.31145025591544
lowerback 10.998687549413244 0.7711045653652627 4.353182112114682
upperback -0.0367370253110719 1.7320304879777297 2.609353652408096
thorax -6.168185402766984 0.7741630775957478 0.021268429696614688
lowerneck -16.3250565105576 -2.905166971731321 -1.1152133741179224
upperneck 20.939341527353907 -3.754490912225768 0.14827366365162575
head 9.442743505842865 -1.8074950939514662 -0.2547171364553215
rclavicle -5.625685283098022E-15 -1.0395487528525815E-15
rhumerus -33.287471539320954 -21.087116951581592 -78.94201618926147
rradius 20.358448227775433
rwrist 7.041139904216352
rhand -17.92464540000962 26.181777206546826
rfingers 7.125020000000019
rthumb 8.34055744375858 -3.619561742056163
lclavicle -7.509851377018818E-15 -1.8533898574020136E-15
lhumerus -31.997921074765372 -0.27794263217703585 84.08859910898006
lradius 27.30403814205913
lwrist 6.292267786265249
lhand -27.633153690823008 24.665375348664142
lfingers 7.125020000000027
lthumb -1.0364599788942757 54.65203296470659
rfemur -5.616222130426126 8.426051799514047 34.54425865550709
rtibia 25.521960693526403
rfoot -20.465104937016207 -6.1736230011035
rtoes 10.46028491656128
lfemur -24.004303412654927 4.670025224965429 -12.08056209248611
ltibia 69.70457778649663
lfoot 2.4170417106971414 -9.96648414725362
ltoes -6.755587856342213
39
root 0 0 0 -2.53642300804328 -5.087830200597775 -7.160149359010147
lowerback 10.313341859626306 1.4288509257860929 5.861816758163751
upperback -0.1392293724026679 2.7580692843088093 2.395457011653201
thorax -5.788693503070066 1.2379351169071 -1.1919909553299797
lowerneck -18.12114314129931 -3.1163376164165295 -1.539079865792607
upperneck 21.386569664993246 -4.068668145833055 0.2547110387484206
head 9.835181935556953 -1.9251151987404307 -0.21188679244503222
rclavicle -7.30760220839689E-15 2.276072097723208E-15
rhumerus -32.20691203502897 -19.156405842853403 -79.73306914212212
rradius 22.36897053813839
rwrist 5.362240136512368
rhand -18.21119257311353 26.039723274578733
rfingers 7.125020000000017
rthumb 8.065129966553013 -3.7758011862311633
lclavicle -8.666509803560224E-15 1.4976156806559156E-15
lhumerus -32.70560645616381 0.014664955858336381 84.2917262619625
lradius 26.935690608262423
lwrist 6.233910536893644
lhand -27.550218344727156 24.66265609496081
lfingers 7.125020000000028
lthumb -0.9542098848188614 54.65194616432614
rfemur -4.8169716598327526 8.318285952479773 34.67813068890248
rtibia 25.075658716528675
rfoot -21.88375926104548 -6.432418112058723
rtoes 10.08057222797078
lfemur -28.121123587975138 4.256332150505262 -12.792871032322562
ltibia 59.47744321269684
lfoot -2.928442551106114 -4.881742848449884
ltoes -2.7113495168335966
40
root 0 0 0 -1.68653454603216 -5.749505857304133 -7.5217332498935345
lowerback 10.617043137418278 1.7969445534242308 6.5080839240517445
upperback 0.41250530998294443 3.2972318482700596 2.2604530481847354
thorax -5.308656975883052 1.4876854486379536 -1.7652645587728584
lowerneck -18.72473153623029 -3.2216430617452083 -1.8587717163529769
upperneck 20.592827233748594 -4.149893296811009 0.31067934999602054
head 9.629401425570459 -1.9784328667047426 -0.15379072991981496
rclavicle -7.19332929217984E-15 2.800742351312806E-15
rhumerus -31.058393977269404 -16.999594397217216 -80.60362850666704
rradius 24.336231935596018
rwrist 4.092372905865674
rhand -18.500999876840698 26.197737699369576
rfingers 7.125020000000015
rthumb 7.7842876670092425 -3.6503630202587445
lclavicle -7.89043804671549E-15 2.1764433226743368E-15
lhumerus -33.09627467837413 0.38045234307777 84.49439645756189
lradius 26.498547483635313
lwrist 6.136333627115805
lhand -27.571367958306432 24.518825813487812
lfingers 7.1250200000000286
lthumb -0.9747662462326669 54.511826077673135
rfemur -4.138365752798417 8.303060475093783 34.51028848808072
rtibia 24.458129701519717
rfoot -22.180454006215303 -6.706624282873754
rtoes 9.424250497175725
lfemur -29.684192259867007 2.0403618889295485 -13.59590411603828
ltibia 40.957562605496236
lfoot -6.970616874537785 0.13721368694880942
ltoes -1.0674398533932852
41
root 0 0 0 -1.1165107050352792 -6.110914026381798 -7.459827440876465
lowerback 10.537720269126488 1.9761067017388587 6.551324592241634
upperback 0.6652859373224436 3.5013173455897277 2.082792268028684
thorax -4.986605177214265 1.5887993800651992 -2.007520961983915
lowerneck -18.291856996801425 -3.117812357293852 -1.8539734108282695
upperneck 19.446613261859135 -3.9487229503233983 0.30580564942794153
head 9.118529602791995 -1.9158280807893204 -0.11997812850560097
rclavicle -7.314458563779989E-15 2.0942049529741877E-15
rhumerus -30.122994302879523 -15.324743585465583 -81.10772663353075
rradius 25.797030446111968
rwrist 3.0155200137072997
rhand -18.71030427679193 26.4386253769069
rfingers 7.125020000000012
rthumb 7.582028475657717 -3.424260330111956
lclavicle -7.602139589147789E-15 1.6557239915623916E-15
lhumerus -33.47676770474759 1.0332501193431363 84.55075217809302
lradius 25.84110857665499
lwrist 5.965147134816888
lhand -27.595337402546715 24.710489852870772
lfingers 7.125020000000028
lthumb -1.0001557814424693 54.71213540459734
rfemur -1.9796585422724178 8.381777127049702 34.85082910099256
rtibia 24.48978982990435
rfoot -22.265107496902143 -6.602961422424244
rtoes 6.8971090126792385
lfemur -27.40011017688007 -2.261817398328543 -13.34171346564978
ltibia 24.33315966812105
lfoot -5.754121460804763 2.8388481902637923
ltoes 0.07832028688510206
42
root 0 0 0 -0.840852221011214 -6.286284007312368 -7.334519073121932
lowerback 10.425545854408933 2.090297765127926 6.460351887794277
upperback 0.7477381014984259 3.6147447285434815 1.9383261891288197
thorax -4.838120805428869 1.6473184708534496 -2.1247581900004517
lowerneck -17.98495137493914 -3.018060014844419 -1.8120156103978586
upperneck 18.37817747229528 -3.7829676734794524 0.31795481161699524
head 8.673543053701183 -1.856788535033839 -0.09255775898014995
rclavicle -7.926433262651569E-15 -3.155356989293159E-16
rhumerus -29.888541313303463 -15.168246657356768 -80.99427393123122
rradius 26.026338032521267
rwrist 2.536187321352897
rhand -18.765518538260896 26.482080262220535
rfingers 7.125020000000011
rthumb 7.529439910751851 -3.3749966028488174
lclavicle -8.39601315182351E-15 -8.694436784474482E-16
lhumerus -34.472952221385924 2.3813578934928996 84.27021701178344
lradius 24.6555692516883
lwrist 5.315043086808351
lhand -27.498809879100843 24.605914253900387
lfingers 7.125020000000032
lthumb -0.9034537642141922 54.61074156850481
rfemur 8.400914300826607 8.852588722807827 36.45787715298858
rtibia 24.35407514320206
rfoot -20.852202525463536 -4.559268896532651
rtoes -3.9902170305946907
lfemur -26.54746683954934 -4.475558084854674 -12.687956495176852
ltibia 21.30256759308498
lfoot -5.062504247197978 3.7860914421390874
ltoes 0.29730713920039165
